<?xml version="1.0" standalone="no"?>
<!DOCTYPE svg PUBLIC "-//W3C//DTD SVG 20010904//EN"
 "http://www.w3.org/TR/2001/REC-SVG-20010904/DTD/svg10.dtd">
<svg version="1.0" xmlns="http://www.w3.org/2000/svg"
 width="1026.000000pt" height="1026.000000pt" viewBox="0 0 1026.000000 1026.000000"
 preserveAspectRatio="xMidYMid meet">
<metadata>
Created by potrace 1.14, written by Peter Selinger 2001-2017
</metadata>
<g transform="translate(0.000000,1026.000000) scale(0.100000,-0.100000)"
fill="#000000" stroke="none">
<path d="M5685 10234 c-16 -9 -93 -45 -170 -81 -150 -69 -424 -220 -564 -310
-105 -68 -242 -174 -267 -207 -18 -22 -23 -23 -74 -16 -136 21 -437 0 -592
-40 -207 -54 -500 -177 -566 -238 -28 -26 -34 -27 -133 -28 -58 0 -122 -6
-144 -14 -62 -20 -164 -91 -226 -156 l-56 -59 -109 -1 c-93 0 -120 -5 -180
-27 -39 -15 -84 -27 -99 -27 -81 0 -386 -105 -509 -175 -148 -84 -304 -218
-398 -342 -87 -114 -213 -343 -277 -507 -31 -78 -81 -255 -81 -288 0 -25 5
-24 127 23 101 38 121 42 308 60 378 35 630 17 921 -66 l51 -15 48 -145 c54
-168 63 -179 147 -173 l53 3 -4 -103 c-3 -110 4 -132 44 -132 23 0 110 -42
133 -64 11 -11 5 -23 -33 -67 -54 -63 -144 -188 -171 -239 -15 -29 -19 -57
-19 -155 -1 -88 -7 -145 -23 -215 -15 -61 -25 -145 -29 -236 l-6 -141 -81 -7
c-45 -3 -148 -6 -231 -6 -186 0 -420 -15 -474 -30 -49 -13 -56 -33 -8 -26 106
17 245 26 505 32 l292 7 0 -49 c0 -27 3 -65 6 -84 l6 -35 -324 -129 c-341
-136 -515 -212 -506 -222 4 -3 187 67 408 155 222 89 406 161 410 161 4 0 11
-35 14 -77 4 -43 9 -90 12 -104 5 -25 -3 -32 -83 -84 -108 -71 -388 -283 -457
-347 -78 -71 -48 -68 35 5 91 78 237 187 389 289 129 87 118 89 140 -28 12
-66 11 -77 -8 -140 -12 -38 -42 -114 -66 -168 -25 -55 -43 -104 -39 -109 3 -5
15 -6 28 -3 22 6 22 3 -16 -100 -44 -119 -45 -123 -24 -138 13 -9 8 -27 -34
-131 -81 -199 -116 -357 -76 -341 50 20 47 43 43 -291 -3 -275 -1 -313 13
-329 15 -17 15 -30 2 -139 -8 -66 -13 -166 -11 -223 3 -99 4 -105 30 -123 21
-16 27 -30 33 -80 8 -64 20 -78 54 -60 16 9 21 8 26 -8 10 -32 35 -233 35
-286 0 -80 7 -95 45 -95 l32 0 22 -137 c12 -76 29 -165 37 -198 25 -100 112
-359 184 -545 91 -234 102 -258 141 -310 19 -25 47 -64 62 -88 23 -36 31 -41
43 -31 8 6 14 21 14 32 0 30 13 11 40 -58 38 -99 95 -206 143 -271 58 -79 75
-112 75 -148 -1 -31 24 -56 54 -56 10 0 18 7 18 15 0 8 2 15 3 15 11 0 246
-249 313 -330 43 -52 87 -104 98 -115 12 -11 40 -42 63 -68 l41 -48 27 36 c15
19 31 35 35 35 4 0 18 -11 32 -24 14 -12 34 -26 43 -30 15 -5 15 -9 4 -23 -12
-14 -11 -15 6 -10 37 12 48 -6 23 -39 l-22 -29 27 24 c20 19 30 22 39 13 8 -8
7 -18 -6 -37 -10 -15 -16 -29 -13 -31 2 -3 12 7 21 21 13 20 20 24 31 15 7 -6
11 -21 8 -33 -4 -18 -3 -19 6 -7 10 13 13 13 24 0 17 -20 92 -60 114 -60 9 0
32 14 49 31 l33 32 38 -30 c65 -52 95 -63 151 -56 45 5 62 0 182 -51 146 -63
201 -79 337 -101 156 -25 213 -21 333 25 61 23 122 40 147 40 32 0 50 7 83 35
23 19 47 35 54 35 7 0 40 9 74 20 49 16 65 18 81 8 28 -17 74 6 97 49 16 30
30 39 84 58 70 24 206 80 229 94 10 7 23 0 44 -21 69 -68 112 -57 105 29 -4
50 -3 53 24 64 47 19 127 101 134 136 6 32 7 32 35 18 39 -21 110 -19 225 6
55 12 121 21 148 20 38 -1 59 5 88 24 21 14 112 64 201 110 l162 84 87 -6
c103 -7 121 1 108 48 -9 29 -7 30 68 68 55 27 83 36 97 30 29 -11 64 -10 108
2 30 8 37 15 37 35 0 14 -10 35 -23 48 l-23 23 69 74 c81 87 235 316 299 444
50 100 84 196 94 267 4 33 10 45 19 42 20 -8 42 35 49 97 7 60 37 119 60 119
19 0 26 22 26 84 0 33 8 66 20 91 19 36 20 51 14 150 -5 93 -3 122 15 192 12
45 21 101 21 126 0 25 7 58 15 73 20 39 19 90 -4 177 -11 39 -32 117 -46 172
-15 55 -29 103 -31 106 -2 4 -17 66 -33 138 -34 151 -95 303 -164 410 -45 69
-47 74 -31 92 23 25 13 68 -37 169 -38 75 -40 83 -25 99 13 14 14 24 5 56 -14
48 -82 185 -199 400 -48 88 -111 206 -140 262 -29 55 -76 133 -106 173 -45 60
-52 74 -42 89 9 16 5 27 -25 69 -21 27 -44 52 -51 55 -9 4 -12 14 -9 27 7 25
-21 58 -85 102 -34 23 -41 33 -32 43 16 19 1 44 -71 121 -83 89 -84 98 -12
192 141 183 408 568 424 610 5 14 17 22 32 22 27 0 43 16 81 82 22 38 33 47
59 50 28 3 33 8 45 48 46 162 40 150 72 143 21 -4 31 -1 34 8 2 8 11 47 20 86
9 42 41 125 75 194 35 71 67 152 77 198 15 65 24 83 64 126 129 138 157 193
84 164 -90 -35 -89 -31 25 86 86 88 112 120 109 137 -2 19 -8 22 -32 20 -33
-4 -101 -36 -179 -86 -29 -18 -63 -39 -76 -45 -28 -15 -24 -7 25 54 39 49 141
225 149 258 4 14 2 27 -3 31 -15 9 -93 -47 -174 -127 -43 -41 -78 -70 -78 -62
0 7 7 67 16 134 17 137 16 186 -6 186 -27 0 -69 -81 -117 -226 l-48 -146 -140
-6 c-99 -4 -162 -12 -214 -27 -86 -24 -331 -120 -412 -161 -43 -21 -65 -26
-95 -22 -36 5 -46 0 -124 -58 l-85 -64 -75 -1 c-41 -1 -80 -2 -87 -3 -10 -1
-145 -104 -182 -139 -7 -7 -21 -10 -30 -7 -11 3 -35 -8 -62 -30 -33 -26 -45
-31 -47 -20 -2 8 -6 15 -9 15 -3 0 -34 -24 -67 -54 -69 -60 -181 -126 -215
-126 -19 0 -150 87 -150 100 0 3 93 51 207 107 235 117 373 194 354 201 -7 2
-70 -28 -141 -67 -70 -39 -199 -105 -286 -146 -131 -62 -161 -72 -174 -62 -9
7 -47 36 -84 66 l-66 54 62 43 c34 23 80 55 102 71 21 15 116 76 210 134 181
111 331 217 321 226 -3 3 -19 -3 -35 -13 -16 -11 -96 -61 -178 -111 -81 -51
-174 -109 -205 -129 -53 -34 -58 -35 -73 -20 -10 9 -30 23 -47 32 -16 8 -27
18 -25 21 8 8 75 -16 91 -33 9 -9 17 -10 21 -4 3 5 -19 22 -49 37 -31 15 -56
31 -56 35 0 4 25 8 56 8 66 0 65 17 -2 18 -26 1 -49 4 -53 7 -10 11 23 25 61
25 20 0 40 5 44 11 4 7 0 9 -12 6 -37 -11 -97 -12 -101 -1 -2 6 19 21 47 34
63 29 59 38 -4 10 -45 -19 -66 -19 -66 -1 0 5 18 21 41 35 22 15 39 30 36 32
-3 3 -24 -8 -48 -25 -28 -19 -47 -26 -54 -20 -10 10 -10 10 34 69 24 32 24 32
2 21 -12 -7 -31 -27 -41 -44 -29 -46 -24 -20 5 33 l25 45 -31 -35 c-26 -29
-30 -31 -25 -12 16 59 14 63 -8 19 -32 -66 -34 -66 -24 0 8 53 58 154 120 245
24 35 23 46 -2 23 -11 -10 -44 -59 -72 -109 -28 -50 -59 -100 -68 -111 -9 -11
-21 -29 -25 -40 -8 -18 -9 -17 -14 10 -13 68 -61 29 -53 -44 5 -51 -6 -50 -18
1 l-8 33 -1 -30 c-1 -23 -3 -27 -11 -15 -13 20 -13 -1 0 -35 18 -46 -1 -48
-31 -3 -34 50 -38 44 -8 -13 25 -50 19 -61 -12 -20 -13 17 -27 31 -32 31 -5 0
6 -19 25 -42 l33 -43 -40 29 -40 29 34 -36 c44 -46 34 -58 -19 -23 -53 35 -51
24 3 -15 l42 -31 -35 4 c-19 3 -44 9 -54 13 -13 6 -17 5 -12 -3 4 -6 23 -14
44 -18 l37 -7 -40 -13 -40 -14 48 5 c45 4 47 4 37 -15 -6 -11 -16 -20 -23 -20
-7 0 -22 -7 -33 -16 -18 -15 -18 -15 4 -9 21 6 22 5 10 -14 -7 -12 -17 -21
-22 -21 -5 0 -52 35 -105 78 -145 118 -400 296 -456 319 -27 12 -96 30 -152
42 -82 16 -112 27 -152 57 -37 26 -51 43 -51 60 0 13 -9 28 -21 34 -18 10 -19
14 -6 28 27 32 28 52 2 78 -13 13 -31 24 -39 24 -28 0 -26 18 9 70 56 83 56
83 -23 248 -62 129 -182 409 -182 424 0 3 51 11 113 18 145 16 410 8 491 -15
32 -9 59 -15 61 -13 1 2 5 109 9 238 4 129 9 245 13 258 4 16 12 22 33 22 38
0 169 34 207 53 49 26 73 63 73 114 0 33 -6 50 -24 68 -35 35 -101 65 -157 72
-32 4 -49 11 -49 19 0 8 -5 14 -11 14 -5 0 -7 -6 -3 -12 5 -10 4 -10 -5 -2
-10 9 -4 44 24 160 48 199 66 285 63 295 -2 5 -16 2 -33 -7z m-1105 -1417 l0
-72 -37 -17 c-21 -10 -48 -26 -59 -36 -29 -25 -62 -95 -54 -113 4 -8 12 -24
18 -35 6 -12 14 -38 18 -58 7 -41 31 -56 85 -56 31 0 30 3 33 -84 1 -23 15
-41 60 -80 32 -28 82 -72 110 -98 l51 -47 -21 -22 -21 -21 -41 27 c-49 32
-133 43 -211 26 -28 -6 -120 -47 -204 -91 l-152 -80 -50 10 c-27 5 -61 11 -75
12 -21 3 -27 12 -46 82 -27 95 -42 115 -80 98 -24 -12 -26 -16 -22 -67 1 -30
0 -51 -3 -47 -4 4 -26 57 -49 117 -24 61 -60 152 -81 204 -22 52 -37 96 -34
99 2 3 51 -3 109 -12 128 -20 146 -20 146 -2 0 27 130 241 165 272 19 17 74
46 121 64 89 35 290 99 312 100 8 0 12 -21 12 -73z m-943 -374 c10 -34 68
-188 163 -432 27 -68 30 -86 19 -90 -8 -2 -57 -26 -109 -53 -93 -47 -96 -48
-149 -38 -30 5 -58 15 -61 20 -11 17 -81 8 -140 -17 -65 -28 -110 -68 -110
-98 0 -11 -5 -26 -11 -32 -7 -7 -7 -17 -1 -29 22 -42 31 -71 34 -100 2 -27 -6
-39 -55 -84 -52 -48 -60 -52 -73 -38 -14 14 -14 23 5 90 25 87 27 142 6 181
-7 15 -41 61 -74 101 -34 41 -61 77 -61 81 0 3 32 52 72 108 104 148 246 285
398 385 69 45 127 82 130 82 3 0 11 -17 17 -37z m5002 -488 c-34 -238 -27
-214 -63 -211 -17 2 -39 4 -50 5 -13 1 -16 5 -9 14 6 6 29 66 53 132 41 117
78 200 85 193 1 -1 -6 -61 -16 -133z m191 -77 c-34 -58 -111 -177 -126 -196
-1 -2 -16 6 -33 18 l-30 23 21 28 c12 16 26 25 31 22 6 -3 7 -1 3 5 -9 16 64
96 77 83 11 -11 37 -4 37 10 0 5 -8 9 -17 9 -13 1 -4 13 27 39 25 22 47 38 49
36 2 -3 -16 -37 -39 -77z m-2520 -78 c-5 -22 -8 -27 -9 -13 -1 21 9 56 14 51
2 -2 0 -19 -5 -38z m-53 -2 c-3 -8 -6 -5 -6 6 -1 11 2 17 5 13 3 -3 4 -12 1
-19z m2733 -47 c0 -14 -26 -32 -35 -23 -5 4 -5 2 -2 -4 10 -17 -58 -88 -74
-79 -7 5 -10 4 -5 -3 7 -12 -60 -78 -75 -74 -6 1 -8 -1 -5 -6 3 -5 -6 -20 -19
-32 -26 -24 -27 -23 -27 25 0 31 3 34 29 29 31 -6 47 13 30 36 -11 13 -10 13
6 1 13 -10 21 -11 29 -3 8 8 3 13 -17 18 -20 5 -30 3 -37 -10 -5 -9 -13 -14
-19 -11 -5 3 -6 0 -4 -7 3 -8 -2 -14 -14 -15 -11 -1 -22 4 -25 12 -3 9 36 36
122 84 130 72 142 77 142 62z m-2715 -92 c11 -33 -13 -79 -41 -79 -34 0 -51
44 -29 76 20 30 61 32 70 3z m107 4 c33 -30 13 -93 -30 -93 -38 0 -56 64 -26
94 20 20 33 20 56 -1z m2178 8 c0 -16 -58 -71 -74 -71 -32 0 -12 46 29 68 25
14 45 15 45 3z m142 -118 c7 -25 -3 -93 -12 -93 -10 0 -6 41 4 58 4 7 3 12 -2
12 -11 0 -36 -90 -27 -98 3 -3 5 0 5 6 0 7 8 12 18 12 16 -1 16 -1 0 -10 -9
-6 -19 -24 -23 -40 -8 -38 -22 -47 -22 -15 0 14 4 25 9 25 5 0 6 5 3 10 -10
16 18 150 31 150 6 0 14 -8 16 -17z m-2552 -7 c0 -3 -4 -8 -10 -11 -5 -3 -10
-1 -10 4 0 6 5 11 10 11 6 0 10 -2 10 -4z m-13 -63 c-16 -16 -30 -23 -38 -18
-9 6 -3 16 22 37 40 34 54 18 16 -19z m368 7 c3 -5 3 -15 -1 -21 -6 -11 -64
37 -64 53 0 10 56 -18 65 -32z m-534 13 c13 -16 12 -17 -3 -4 -10 7 -18 15
-18 17 0 8 8 3 21 -13z m2900 -10 c-10 -16 -40 -48 -65 -73 l-46 -44 0 41 c0
41 1 42 63 71 34 17 63 31 65 31 2 1 -6 -11 -17 -26z m-2401 -44 c0 -4 -7 -9
-15 -13 -10 -3 -20 5 -30 24 -24 46 -18 56 15 25 17 -16 30 -32 30 -36z m-306
10 c-12 -24 -18 -29 -27 -19 -9 9 -6 16 12 31 32 26 34 24 15 -12z m46 1 c0
-5 -5 -21 -10 -36 -8 -20 -14 -24 -22 -16 -8 8 -7 19 2 41 11 27 30 34 30 11z
m192 -7 c22 -20 23 -39 2 -47 -20 -8 -20 -9 -27 32 -7 36 -2 39 25 15z m-161
-39 c-7 -42 -27 -47 -24 -7 3 37 11 55 21 49 5 -3 6 -22 3 -42z m63 -3 c3 -22
9 -46 12 -54 7 -20 -32 -33 -52 -16 -11 9 -13 23 -8 53 8 49 11 56 28 56 8 0
16 -17 20 -39z m56 8 c11 -26 11 -33 -3 -47 -21 -20 -27 -13 -34 37 -4 32 -2
41 9 41 9 0 21 -14 28 -31z m165 -337 c-3 -3 -11 0 -18 7 -9 10 -8 11 6 5 10
-3 15 -9 12 -12z m-3385 -1855 c0 -2 -10 -12 -22 -23 l-23 -19 19 23 c18 21
26 27 26 19z m4648 -92 c-3 -3 -9 2 -12 12 -6 14 -5 15 5 6 7 -7 10 -15 7 -18z
m31 -8 c8 -10 7 -14 -2 -14 -8 0 -14 6 -14 14 0 7 1 13 2 13 2 0 8 -6 14 -13z
m-5072 -1879 c-3 -8 -6 -5 -6 6 -1 11 2 17 5 13 3 -3 4 -12 1 -19z m5509
-2195 l26 -28 -24 -6 c-76 -22 -125 5 -79 43 31 25 48 23 77 -9z m-322 -133
c16 -6 26 -17 26 -30 0 -18 -6 -20 -53 -20 -41 0 -58 5 -72 20 -17 19 -17 20
6 29 32 13 62 13 93 1z m-510 -185 c8 -9 13 -22 10 -30 -8 -20 -49 -45 -74
-45 -17 0 -20 4 -15 23 19 61 49 81 79 52z m-704 -273 c17 -13 24 -32 28 -71
4 -50 4 -53 -14 -43 -44 24 -64 52 -64 92 0 45 14 51 50 22z m-426 -194 c8
-13 5 -22 -14 -43 -33 -35 -50 -32 -50 8 0 53 39 75 64 35z m-293 -116 c-22
-41 -84 -66 -94 -37 -8 19 45 55 81 55 19 0 21 -3 13 -18z"/>
<path d="M8619 8003 c-5 -26 -4 -65 1 -68 3 -2 6 14 6 36 1 34 -4 52 -7 32z"/>
<path d="M8584 7908 c-4 -5 -3 -12 0 -15 3 -3 1 -12 -4 -18 -8 -9 -6 -14 4
-18 18 -7 27 4 30 37 3 23 -19 32 -30 14z m20 -14 c3 -8 2 -12 -4 -9 -6 3 -10
10 -10 16 0 14 7 11 14 -7z"/>
<path d="M8569 7843 c-1 -5 -1 -11 0 -15 0 -5 -3 -8 -9 -8 -11 0 -9 -28 3 -47
13 -20 24 -15 29 12 3 13 2 24 -1 23 -19 -2 -24 4 -11 12 11 7 11 10 2 10 -7
0 -10 5 -7 10 3 6 4 10 1 10 -3 0 -7 -3 -7 -7z"/>
<path d="M8733 7800 c-1 -11 2 -20 8 -20 5 0 9 9 9 20 0 11 -4 20 -8 20 -4 0
-8 -9 -9 -20z"/>
<path d="M8720 7770 c10 -7 11 -10 3 -11 -7 -1 -18 -2 -25 -3 -16 -2 -17 -43
-1 -43 8 0 12 6 9 14 -3 7 1 13 8 13 7 0 19 6 25 14 9 11 8 15 -5 20 -23 9
-31 7 -14 -4z"/>
<path d="M8884 7694 c-18 -14 -18 -15 4 -4 12 6 22 13 22 15 0 8 -5 6 -26 -11z"/>
<path d="M8880 7670 c-9 -6 -10 -10 -3 -10 6 0 15 5 18 10 8 12 4 12 -15 0z"/>
<path d="M8824 7653 c10 -11 37 -12 30 -2 -3 5 -12 9 -21 9 -9 0 -13 -3 -9 -7z"/>
<path d="M6240 7615 c0 -8 5 -15 10 -15 6 0 10 7 10 15 0 8 -4 15 -10 15 -5 0
-10 -7 -10 -15z"/>
<path d="M6325 7620 c-4 -6 -3 -16 3 -22 6 -6 12 -6 17 2 4 6 3 16 -3 22 -6 6
-12 6 -17 -2z"/>
<path d="M8508 7643 c7 -3 16 -2 19 1 4 3 -2 6 -13 5 -11 0 -14 -3 -6 -6z"/>
<path d="M8485 7620 c-3 -6 1 -7 9 -4 18 7 21 14 7 14 -6 0 -13 -4 -16 -10z"/>
<path d="M8810 7460 c0 -5 -3 -9 -7 -9 -20 3 -30 -2 -30 -15 0 -11 5 -12 17
-6 24 13 45 40 31 40 -6 0 -11 -4 -11 -10z"/>
<path d="M8220 1050 c8 -5 20 -10 25 -10 6 0 3 5 -5 10 -8 5 -19 10 -25 10 -5
0 -3 -5 5 -10z"/>
<path d="M8200 1036 c0 -2 7 -7 16 -10 8 -3 12 -2 9 4 -6 10 -25 14 -25 6z"/>
<path d="M7875 890 c-2 -3 12 -6 31 -7 19 0 32 2 29 6 -8 8 -55 9 -60 1z"/>
<path d="M7365 710 c-3 -6 1 -7 9 -4 18 7 21 14 7 14 -6 0 -13 -4 -16 -10z"/>
<path d="M6690 420 c0 -11 2 -20 4 -20 2 0 6 9 9 20 3 11 1 20 -4 20 -5 0 -9
-9 -9 -20z"/>
<path d="M6717 433 c-12 -12 -7 -53 6 -53 9 0 12 10 9 30 -5 32 -5 33 -15 23z"/>
<path d="M6257 271 c2 -2 -2 -10 -7 -16 -7 -9 -5 -17 7 -26 9 -8 14 -9 10 -2
-4 6 -2 13 3 15 7 2 6 9 -2 18 -7 8 -12 13 -11 11z"/>
<path d="M5924 128 c-3 -4 2 -8 10 -8 8 0 17 4 20 8 3 5 -2 9 -10 9 -8 0 -17
-4 -20 -9z"/>
<path d="M6570 9800 l-2 -65 -11 55 -12 55 -5 -60 c-5 -55 -6 -57 -12 -26 -5
18 -8 44 -8 57 0 12 -4 25 -9 29 -6 3 -8 -18 -5 -52 5 -57 5 -58 -9 -23 -7 19
-19 44 -26 55 -13 22 -13 21 5 -47 4 -16 -2 -12 -20 15 -37 51 -43 46 -12 -10
15 -25 24 -48 21 -51 -3 -3 -5 -1 -5 5 0 13 -62 75 -68 68 -3 -2 12 -23 32
-45 52 -58 33 -82 -28 -37 -45 34 -56 39 -56 29 0 -6 21 -22 46 -37 36 -21 43
-29 34 -40 -10 -12 -21 -10 -67 11 -31 13 -58 22 -60 20 -2 -2 21 -15 51 -29
77 -35 74 -52 -6 -43 -72 9 -74 -2 -2 -12 67 -10 71 -32 5 -32 -27 0 -52 -3
-54 -7 -3 -5 19 -6 49 -5 70 5 75 -18 9 -43 -25 -10 -50 -24 -56 -31 -15 -19
-12 -18 46 10 47 23 89 24 50 2 -31 -18 -86 -68 -81 -74 3 -2 21 9 41 27 33
29 55 39 55 25 0 -3 -16 -26 -36 -50 -46 -56 -32 -58 16 -2 53 60 70 43 30
-30 -31 -57 -30 -56 32 22 24 30 34 12 21 -37 -15 -55 -8 -60 13 -8 9 23 23
41 31 41 13 0 15 -10 9 -57 -4 -31 -3 -54 1 -50 3 4 9 26 12 50 5 34 10 43 29
45 17 3 22 -2 23 -20 0 -13 5 -32 10 -43 6 -14 7 -5 3 28 -5 38 -3 47 9 47 9
0 19 -17 26 -46 7 -26 14 -44 18 -41 3 3 0 20 -6 38 -25 72 -4 94 29 30 11
-22 25 -43 31 -47 7 -4 -1 16 -16 45 -16 28 -26 54 -23 57 3 3 22 -11 42 -30
19 -20 39 -36 43 -36 4 0 -12 20 -36 44 -48 49 -41 70 13 37 49 -31 57 -26 11
6 -29 20 -35 28 -23 31 9 2 30 -4 47 -13 17 -8 31 -12 31 -8 0 5 -20 16 -45
26 -25 11 -45 23 -45 28 0 5 24 10 53 10 47 2 49 2 17 8 l-35 7 32 8 c18 4 36
12 40 18 4 8 0 9 -13 4 -10 -4 -35 -10 -54 -12 -31 -4 -33 -3 -16 8 10 7 31
23 45 36 l26 23 -35 -21 c-55 -32 -68 -25 -29 17 31 33 31 34 5 15 -36 -27
-47 -20 -18 11 33 36 26 45 -9 11 l-30 -29 11 30 c6 16 16 35 22 42 6 8 9 16
6 19 -3 3 -15 -11 -26 -31 -23 -38 -47 -48 -38 -15 16 56 17 65 7 50 -8 -12
-11 -7 -12 20 l-1 35 -14 -45 -13 -45 1 45 c1 63 -1 72 -12 65 -5 -3 -10 -1
-10 5 0 6 -4 9 -9 6 -5 -4 -12 0 -14 6 -3 7 -6 -16 -7 -52z m37 -37 c-3 -10
-5 -2 -5 17 0 19 2 27 5 18 2 -10 2 -26 0 -35z m-20 -10 c-3 -10 -5 -2 -5 17
0 19 2 27 5 18 2 -10 2 -26 0 -35z m52 -127 c18 -48 -20 -94 -54 -66 -20 17
-19 31 1 23 12 -4 15 -2 12 8 -3 8 -12 13 -22 11 -20 -4 -21 22 -1 41 19 20
54 10 64 -17z m-121 12 c25 -25 7 -98 -25 -98 -25 0 -53 30 -53 56 0 43 50 70
78 42z"/>
<path d="M6496 9593 c-11 -11 -6 -23 9 -23 8 0 15 4 15 9 0 13 -16 22 -24 14z"/>
<path d="M8386 9808 c-27 -10 -28 -12 -24 -65 3 -30 1 -48 -3 -41 -5 7 -9 23
-9 35 0 12 -4 25 -10 28 -6 4 -7 -6 -4 -27 6 -32 6 -32 -10 -13 -15 19 -15 17
-1 -22 18 -54 3 -64 -25 -18 -30 49 -37 37 -10 -17 l22 -43 -38 35 c-37 34
-37 34 -17 5 37 -56 37 -59 2 -36 l-34 23 33 -32 c44 -41 32 -51 -21 -21 -26
15 -37 18 -29 9 7 -9 26 -21 42 -28 32 -13 40 -30 15 -30 -9 0 -31 7 -50 14
-19 8 -35 11 -35 7 0 -5 15 -15 33 -22 l32 -14 -30 -6 c-24 -5 -19 -7 23 -8
28 0 52 -5 52 -10 0 -4 -21 -16 -46 -26 -25 -9 -43 -20 -40 -23 3 -3 24 3 46
13 55 25 61 13 11 -21 -50 -33 -48 -43 3 -13 20 12 39 19 43 16 3 -3 -12 -28
-33 -54 l-38 -48 42 39 c23 22 44 37 48 33 3 -3 -6 -27 -20 -53 -14 -26 -24
-49 -22 -51 3 -3 18 19 35 48 23 40 32 49 36 36 4 -9 1 -32 -5 -52 -7 -20 -9
-39 -6 -42 3 -3 10 16 17 41 6 26 16 45 23 43 12 -4 13 -28 3 -69 -4 -16 -3
-28 2 -28 5 0 12 20 15 45 6 35 11 45 26 45 14 0 20 -11 25 -50 4 -27 10 -50
15 -50 4 0 4 19 -1 43 -11 58 -11 57 9 57 13 0 24 -14 35 -42 21 -53 32 -45
13 10 -14 38 -12 52 6 52 4 0 20 -18 34 -40 36 -55 43 -43 9 15 -40 68 -19 80
34 18 22 -26 41 -43 41 -36 0 6 -16 30 -35 53 -19 23 -35 44 -35 46 0 9 45
-19 73 -44 15 -14 27 -21 27 -15 0 16 -26 40 -61 58 -35 18 -39 40 -6 29 46
-14 65 -23 72 -33 3 -6 11 -11 17 -11 22 0 -14 28 -64 50 -62 26 -53 44 21 39
28 -2 51 -1 51 4 0 4 -24 7 -54 7 -39 0 -55 4 -60 15 -4 12 3 15 32 16 20 1
48 5 62 10 17 6 6 7 -37 4 -36 -3 -65 0 -68 5 -4 6 19 22 51 36 31 14 54 27
51 30 -2 3 -25 -5 -50 -17 -28 -14 -52 -19 -63 -15 -18 7 -17 9 6 24 13 10 36
28 50 41 l25 23 -25 -14 c-14 -8 -38 -23 -53 -33 -47 -30 -54 -5 -12 44 19 24
35 45 35 47 0 14 -53 -34 -66 -58 -9 -17 -18 -28 -20 -25 -3 2 9 28 25 56 37
62 32 66 -9 9 -34 -47 -35 -46 -15 11 20 57 9 51 -20 -11 l-25 -53 6 40 c3 22
8 48 11 59 3 11 1 16 -5 12 -6 -3 -13 -29 -17 -57 -5 -36 -10 -47 -16 -38 -5
8 -7 32 -4 54 5 29 3 36 -4 25 -6 -8 -11 -33 -12 -55 l-1 -40 -9 50 c-5 28 -7
56 -4 63 2 6 3 12 2 11 -1 0 -15 -5 -31 -11z m32 -217 c9 -60 -36 -105 -65
-65 -19 26 -16 51 8 75 25 25 53 21 57 -10z m123 -8 c15 -40 -3 -73 -40 -73
-30 0 -41 14 -41 54 0 50 63 65 81 19z"/>
<path d="M8390 9555 c0 -8 5 -15 10 -15 6 0 10 7 10 15 0 8 -4 15 -10 15 -5 0
-10 -7 -10 -15z"/>
<path d="M8470 9545 c0 -9 5 -15 11 -13 6 2 11 8 11 13 0 5 -5 11 -11 13 -6 2
-11 -4 -11 -13z"/>
<path d="M7419 9789 c-85 -13 -179 -80 -179 -129 0 -10 -5 -20 -10 -22 -6 -2
-2 -20 10 -45 11 -23 20 -52 20 -65 0 -35 12 -46 60 -56 49 -11 165 -9 218 2
128 28 191 79 192 155 0 63 -114 141 -207 141 -13 0 -23 6 -23 14 0 15 -7 16
-81 5z"/>
<path d="M5620 8760 l-2 -65 -13 60 -12 60 -4 -60 -5 -60 -8 53 c-11 69 -26
77 -20 10 l5 -53 -18 42 c-18 42 -42 74 -30 40 4 -11 10 -31 13 -45 5 -24 3
-23 -20 11 -36 50 -40 47 -9 -9 14 -25 23 -48 19 -51 -3 -4 -6 -2 -6 4 0 11
-25 40 -52 62 -28 21 -21 7 17 -40 49 -58 32 -75 -31 -30 -25 18 -48 30 -51
28 -2 -3 7 -13 22 -24 71 -50 72 -51 51 -59 -11 -4 -35 1 -63 15 -25 12 -48
20 -51 17 -3 -3 18 -15 46 -27 68 -28 70 -51 5 -43 -27 3 -55 8 -63 10 -10 4
-12 2 -5 -5 6 -5 30 -12 55 -16 51 -8 55 -9 45 -24 -3 -6 -28 -11 -56 -11 -27
0 -49 -3 -49 -7 0 -5 25 -6 55 -5 45 3 55 1 55 -12 0 -9 -5 -16 -10 -16 -17 0
-100 -42 -100 -50 0 -4 21 3 47 16 80 41 102 27 28 -18 -25 -15 -45 -33 -45
-39 0 -7 9 -4 23 8 22 21 60 43 72 43 4 0 -12 -22 -35 -50 -50 -60 -36 -68 17
-10 48 54 61 34 21 -33 -37 -63 -31 -70 10 -12 36 51 58 59 48 18 -3 -16 -8
-39 -11 -53 -3 -14 4 -7 15 18 12 23 28 42 37 42 13 0 14 -8 9 -52 -4 -29 -4
-49 0 -45 4 4 10 26 13 50 4 29 11 43 24 45 9 2 19 -2 21 -10 2 -7 8 -29 14
-48 l10 -35 -1 47 c-2 61 14 63 31 3 8 -25 16 -44 19 -41 3 3 0 19 -6 37 -25
72 -4 94 29 30 11 -22 25 -43 31 -46 5 -4 -1 16 -16 45 -14 29 -24 55 -21 58
4 3 23 -10 43 -29 l37 -34 -32 41 c-44 57 -40 67 13 37 57 -31 58 -24 3 12
-49 32 -38 44 18 20 20 -8 39 -13 41 -11 2 2 -16 12 -41 22 -62 26 -59 42 7
38 28 -1 42 0 30 2 -30 7 -29 20 2 28 14 4 25 10 25 15 0 4 -20 2 -45 -7 -25
-8 -49 -11 -53 -7 -4 4 -2 9 3 11 25 10 77 46 72 51 -3 3 -19 -4 -35 -16 -29
-20 -52 -27 -52 -16 0 3 15 19 33 35 17 16 27 30 20 30 -6 0 -15 -4 -18 -10
-3 -5 -15 -15 -27 -21 -18 -9 -16 -5 8 27 l28 39 -32 -29 c-38 -35 -39 -30
-11 27 22 43 17 42 -18 -6 -25 -32 -38 -21 -23 18 12 32 12 58 0 30 -7 -17 -9
-14 -10 15 l-2 35 -13 -40 -14 -40 2 48 c1 46 -15 73 -34 61 -4 -2 -10 2 -12
8 -3 7 -6 -16 -7 -52z m37 -37 c-3 -10 -5 -2 -5 17 0 19 2 27 5 18 2 -10 2
-26 0 -35z m-20 5 c-3 -7 -5 -2 -5 12 0 14 2 19 5 13 2 -7 2 -19 0 -25z m-61
-145 c9 -36 -11 -73 -40 -73 -13 0 -29 6 -35 14 -19 23 -9 69 18 82 31 16 50
8 57 -23z m102 25 c17 -17 15 -73 -2 -87 -11 -9 -20 -10 -35 -1 -24 12 -29 32
-6 24 10 -4 15 0 15 11 0 12 -5 15 -20 10 -15 -5 -20 -2 -20 12 0 23 19 43 40
43 9 0 21 -5 28 -12z"/>
<path d="M5540 8544 c0 -9 5 -14 12 -12 18 6 21 28 4 28 -9 0 -16 -7 -16 -16z"/>
<path d="M7421 8763 c-9 -10 -12 -31 -9 -66 4 -41 3 -47 -4 -27 -24 61 -27 65
-21 30 5 -34 5 -34 -11 -15 -16 19 -16 17 -1 -19 23 -58 3 -67 -29 -14 -14 23
-26 36 -26 28 0 -9 4 -20 8 -25 5 -6 14 -23 21 -40 l13 -30 -38 35 -37 35 28
-37 c29 -40 21 -53 -10 -18 -10 11 -20 18 -23 15 -3 -2 10 -18 29 -34 42 -37
32 -51 -17 -22 -20 12 -39 20 -41 17 -3 -2 14 -15 36 -28 22 -13 41 -26 41
-31 0 -7 -36 -1 -77 14 -13 5 -23 5 -23 0 0 -5 14 -12 30 -16 17 -4 28 -11 24
-16 -3 -5 -9 -7 -13 -5 -4 3 -13 0 -21 -5 -11 -8 -1 -9 32 -5 66 8 69 -9 6
-38 -29 -13 -46 -25 -38 -25 8 0 26 6 40 14 14 8 31 14 38 15 23 0 12 -17 -23
-36 -19 -10 -35 -22 -35 -27 0 -9 56 19 65 33 3 5 10 10 16 10 18 0 9 -27 -17
-51 -14 -13 -30 -33 -36 -44 -6 -11 7 -3 29 18 21 20 42 37 46 37 4 0 -4 -23
-19 -51 -14 -28 -23 -53 -20 -56 2 -3 17 19 31 47 18 36 30 49 37 42 7 -7 6
-21 -2 -46 -6 -20 -10 -42 -8 -48 3 -7 10 9 17 35 7 30 16 47 24 44 12 -4 13
-20 3 -70 -3 -15 -2 -26 3 -23 5 3 11 24 15 46 5 30 11 40 24 40 14 0 22 -12
30 -47 l11 -48 -3 48 c-3 39 -1 47 14 47 10 0 24 -16 35 -40 23 -51 30 -46 11
8 -24 67 16 67 50 -1 9 -16 18 -26 21 -23 3 3 -7 26 -21 51 -38 64 -23 76 30
24 53 -52 58 -43 9 17 -43 52 -39 79 9 68 17 -4 42 -14 56 -23 23 -15 24 -15
12 1 -8 9 -33 25 -58 34 -24 9 -41 20 -38 25 3 5 31 9 62 9 41 0 53 3 42 10
-8 6 -32 9 -53 8 -20 -1 -42 3 -48 9 -8 8 1 13 37 18 27 4 56 11 64 16 14 8 5
8 -79 -6 -51 -8 -40 18 18 46 31 15 50 28 43 28 -7 1 -31 -8 -53 -20 -38 -19
-69 -20 -69 -2 0 5 21 21 46 36 26 15 44 31 40 34 -3 4 -26 -8 -51 -26 -40
-29 -65 -34 -65 -12 0 4 17 27 37 51 26 30 31 39 16 31 -12 -6 -33 -26 -48
-43 -21 -26 -24 -28 -14 -8 6 14 21 37 31 53 11 15 15 27 9 27 -5 0 -20 -18
-32 -40 -28 -50 -34 -46 -14 10 22 62 9 63 -16 1 -12 -28 -23 -50 -25 -48 -2
2 0 25 5 50 4 26 5 47 1 47 -5 0 -11 -22 -15 -50 -9 -69 -30 -66 -22 3 4 35 3
47 -3 37 -5 -8 -10 -33 -11 -55 -1 -40 -1 -39 -11 13 -5 29 -13 50 -18 47 -5
-3 -10 -1 -12 4 -1 5 -9 2 -17 -6z m47 -231 c-4 -41 -29 -63 -55 -46 -27 17
-26 52 2 80 21 21 28 24 41 13 9 -8 14 -25 12 -47z m112 28 c24 -24 25 -38 4
-68 -29 -41 -76 -20 -76 35 0 24 24 53 44 53 4 0 17 -9 28 -20z"/>
<path d="M7445 8527 c-4 -10 -5 -21 -1 -24 10 -10 18 4 13 24 -4 17 -4 17 -12
0z"/>
<path d="M7525 8520 c-4 -6 -3 -16 3 -22 6 -6 12 -6 17 2 4 6 3 16 -3 22 -6 6
-12 6 -17 -2z"/>
<path d="M6438 8746 c-62 -17 -126 -60 -139 -94 -6 -15 -15 -34 -19 -42 -4 -8
-3 -24 3 -35 6 -11 14 -28 19 -37 4 -10 8 -30 8 -45 0 -16 4 -34 9 -41 9 -15
221 -38 230 -25 3 5 19 10 36 12 154 18 245 143 162 222 -33 31 -112 69 -146
69 -16 0 -36 7 -45 15 -17 18 -54 18 -118 1z"/>
<path d="M7654 8427 c10 -7 32 -23 49 -37 29 -23 30 -23 18 -2 -6 12 -25 29
-41 37 -34 18 -53 19 -26 2z"/>
<path d="M2499 6822 c-26 -2 -73 -17 -110 -35 -54 -27 -68 -39 -87 -79 l-24
-47 21 -47 c12 -25 21 -59 21 -75 0 -26 4 -28 56 -39 30 -6 61 -10 67 -7 7 2
34 1 60 -3 26 -4 50 -4 52 1 3 4 24 10 48 14 120 20 195 91 177 170 -13 59
-85 106 -182 120 -26 4 -48 12 -50 19 -2 7 -21 10 -49 8z"/>
<path d="M2632 1739 c-63 -28 -94 -55 -117 -102 l-21 -42 23 -45 c13 -25 23
-57 23 -71 0 -34 15 -40 110 -45 41 -2 85 -6 97 -9 12 -3 25 -1 28 5 3 5 14
10 24 10 47 0 128 34 163 70 68 67 48 145 -51 194 -26 13 -68 27 -94 31 -26 4
-47 11 -47 16 0 16 -94 8 -138 -12z"/>
<path d="M2740 730 l-2 -65 -11 55 -12 55 -5 -60 -6 -60 -8 50 c-12 73 -26 90
-20 25 l5 -55 -26 50 c-23 46 -25 42 -9 -17 4 -16 -2 -12 -20 15 -36 51 -42
47 -11 -8 33 -61 32 -63 -11 -15 -48 53 -57 43 -10 -11 l36 -43 -26 -27 -26
-28 -56 25 c-30 13 -57 23 -59 20 -5 -4 83 -46 97 -46 5 0 10 -7 10 -16 0 -14
-9 -16 -62 -11 -40 4 -54 3 -38 -3 14 -4 40 -8 58 -9 21 -1 32 -6 32 -16 0
-11 -12 -15 -49 -15 -28 0 -52 -3 -54 -7 -3 -5 19 -6 49 -5 70 5 75 -18 9 -43
-25 -10 -50 -24 -56 -31 -15 -19 -12 -18 45 11 27 13 53 22 59 18 7 -4 4 -11
-8 -17 -31 -18 -86 -68 -81 -74 3 -2 21 9 41 27 33 29 55 39 55 25 0 -3 -16
-26 -36 -50 -46 -56 -32 -58 16 -2 52 60 70 43 30 -28 -38 -65 -27 -73 12 -9
15 25 32 45 38 45 13 0 13 -31 0 -66 -6 -15 -8 -29 -6 -32 3 -2 13 14 22 37 9
23 23 41 31 41 13 0 15 -10 9 -57 -4 -31 -3 -54 1 -50 3 4 9 26 12 50 5 34 10
43 29 45 18 3 22 -1 22 -25 0 -15 5 -35 11 -43 8 -11 9 -2 4 32 -5 38 -3 48 8
48 9 0 19 -18 26 -46 7 -26 14 -44 18 -41 3 3 -2 26 -10 51 -8 24 -13 47 -9
50 12 13 22 4 42 -33 11 -22 25 -43 31 -47 7 -4 -1 16 -16 45 -16 28 -26 54
-23 56 3 3 21 -10 39 -30 18 -19 38 -35 43 -35 6 0 -9 20 -33 44 -48 49 -41
70 13 37 52 -32 57 -25 6 9 -37 25 -41 30 -22 30 13 0 36 -7 52 -15 17 -9 30
-12 30 -8 0 5 -20 16 -45 26 -25 11 -45 23 -45 28 0 5 24 10 53 10 51 2 51 2
12 8 l-40 7 37 7 c21 4 40 13 44 19 5 8 1 9 -12 4 -10 -4 -35 -10 -54 -12 -31
-4 -33 -3 -16 8 10 7 31 23 45 36 l26 23 -35 -21 c-55 -32 -68 -25 -29 17 l34
36 -32 -22 c-18 -12 -33 -18 -33 -12 0 5 4 13 10 16 5 3 15 16 21 28 9 18 6
17 -15 -5 -15 -16 -29 -28 -31 -28 -7 0 14 52 27 67 6 8 9 16 6 19 -3 3 -15
-11 -26 -31 -22 -36 -50 -49 -37 -17 3 9 8 31 11 47 4 25 3 26 -5 10 -8 -17
-10 -15 -11 15 l-2 35 -14 -45 -14 -45 4 48 c3 35 0 50 -10 54 -8 3 -11 9 -8
14 3 5 0 9 -5 9 -6 0 -11 -6 -12 -12 0 -7 -4 -4 -9 7 -6 14 -9 1 -10 -45z m37
-37 c-3 -10 -5 -2 -5 17 0 19 2 27 5 18 2 -10 2 -26 0 -35z m-20 5 c-3 -7 -5
-2 -5 12 0 14 2 19 5 13 2 -7 2 -19 0 -25z m45 -132 c4 -6 8 -26 8 -44 0 -36
-22 -52 -48 -35 -23 14 -28 35 -6 26 12 -4 15 -2 12 8 -3 8 -12 13 -22 11 -20
-4 -21 22 -1 42 16 15 44 11 57 -8z m-114 2 c25 -25 7 -98 -25 -98 -25 0 -53
30 -53 56 0 43 50 70 78 42z"/>
<path d="M2666 523 c-11 -11 -6 -23 9 -23 8 0 15 4 15 9 0 13 -16 22 -24 14z"/>
<path d="M1740 719 c-61 -10 -134 -51 -161 -89 -20 -29 -35 -85 -20 -76 5 3 7
-3 4 -14 -3 -11 -1 -26 5 -33 6 -7 14 -32 18 -54 7 -48 14 -51 133 -59 52 -3
101 1 146 11 131 31 185 75 185 152 0 37 -5 49 -32 74 -37 33 -124 69 -168 69
-20 0 -30 5 -30 15 0 17 -1 17 -80 4z"/>
<path d="M3595 720 c-91 -13 -185 -78 -185 -127 0 -12 -5 -23 -11 -25 -9 -3
-9 -9 0 -26 6 -12 16 -31 21 -42 6 -11 10 -31 10 -44 0 -33 25 -56 63 -57 18
-1 61 -3 97 -5 117 -7 271 51 299 112 17 38 13 78 -10 108 -31 39 -101 76
-158 83 -33 4 -51 10 -51 19 0 15 0 15 -75 4z"/>
<path d="M2511 681 c2 -6 24 -23 49 -37 l45 -25 -30 26 c-40 34 -69 51 -64 36z"/>
</g>
</svg>
